<svg xmlns="http://www.w3.org/2000/svg" width="256" height="172.29" viewBox="0 0 256 172.29"><rect width="256" height="172.29" fill="#ffffff"/><path fill-rule="evenodd" fill="#2d2d2d" d="M 130.53 162.06 C 131.78 161.96 134.06 161.78 135.59 161.67 C 139.25 161.42 140.34 161.29 142.18 160.91 C 143.02 160.74 144.58 160.47 145.65 160.31 C 146.79 160.15 148.17 159.85 148.96 159.60 C 149.71 159.36 150.85 159.07 151.49 158.96 C 152.79 158.74 153.20 158.63 153.96 158.30 C 154.24 158.17 155.20 157.91 156.08 157.70 C 156.96 157.50 157.87 157.22 158.09 157.08 C 158.31 156.94 159.05 156.68 159.72 156.49 C 160.39 156.30 161.21 156.01 161.56 155.83 C 161.90 155.66 162.63 155.40 163.19 155.25 C 163.75 155.10 164.62 154.75 165.12 154.48 C 165.62 154.21 166.35 153.89 166.74 153.78 C 167.13 153.67 167.66 153.43 167.91 153.26 C 168.16 153.09 168.60 152.88 168.88 152.79 C 169.59 152.56 170.29 152.20 170.49 151.95 C 170.59 151.84 171.08 151.63 171.59 151.48 C 172.10 151.33 172.75 151.05 173.03 150.85 C 173.32 150.65 173.84 150.34 174.20 150.16 C 175.05 149.74 176.17 149.09 177.16 148.43 C 177.60 148.14 178.21 147.81 178.51 147.69 C 178.81 147.57 179.34 147.27 179.68 147.03 C 180.02 146.79 180.54 146.47 180.83 146.32 C 181.12 146.18 181.44 145.96 181.53 145.84 C 181.63 145.72 182.04 145.46 182.43 145.26 C 182.83 145.05 183.30 144.73 183.47 144.55 C 183.64 144.36 184.05 144.05 184.38 143.86 C 185.02 143.48 186.46 142.43 186.98 141.95 C 187.16 141.79 187.54 141.53 187.83 141.38 C 188.11 141.23 188.67 140.84 189.06 140.51 C 189.45 140.19 190.09 139.68 190.48 139.38 C 190.86 139.08 191.49 138.54 191.86 138.19 C 192.23 137.83 192.83 137.28 193.20 136.95 C 193.57 136.63 194.15 136.11 194.50 135.79 C 194.85 135.47 195.39 134.97 195.71 134.68 C 197.17 133.37 199.53 131.09 203.82 126.80 C 206.37 124.24 210.59 120.04 213.18 117.45 C 215.78 114.87 218.00 112.64 218.12 112.51 C 218.23 112.38 218.54 112.06 218.81 111.80 C 219.08 111.54 219.96 110.66 220.76 109.84 C 221.56 109.02 222.41 108.18 222.65 107.96 C 222.89 107.74 223.45 107.19 223.89 106.72 C 224.32 106.27 224.91 105.68 225.18 105.43 C 225.46 105.17 226.05 104.59 226.48 104.14 C 226.92 103.69 229.67 100.94 232.59 98.04 C 235.51 95.14 238.02 92.63 238.17 92.46 C 238.55 92.02 238.74 91.83 242.12 88.49 C 245.97 84.70 246.00 84.64 245.03 83.60 C 244.69 83.23 244.24 82.77 244.03 82.59 C 243.83 82.41 243.27 81.85 242.80 81.36 C 242.33 80.87 240.93 79.47 239.70 78.25 C 238.47 77.03 237.36 75.93 237.24 75.80 C 236.81 75.38 227.28 65.84 227.19 65.74 C 227.13 65.69 225.25 63.79 223.00 61.52 C 218.64 57.14 218.71 57.19 217.83 57.52 C 217.66 57.59 206.84 68.32 193.78 81.37 C 171.63 103.51 168.66 106.43 166.92 107.91 C 166.55 108.22 165.94 108.73 165.56 109.05 C 165.18 109.37 164.60 109.80 164.28 110.01 C 163.95 110.21 163.54 110.52 163.35 110.70 C 163.01 111.01 162.43 111.44 161.27 112.22 C 160.96 112.43 160.38 112.81 159.98 113.08 C 159.58 113.35 159.05 113.66 158.80 113.76 C 158.55 113.87 158.15 114.12 157.91 114.33 C 157.66 114.54 157.20 114.82 156.88 114.96 C 156.56 115.10 156.02 115.40 155.68 115.62 C 155.34 115.85 154.76 116.14 154.38 116.26 C 154.00 116.38 153.43 116.65 153.11 116.85 C 152.79 117.05 152.12 117.36 151.62 117.55 C 151.12 117.74 150.58 117.98 150.43 118.08 C 150.27 118.18 149.69 118.42 149.13 118.60 C 148.57 118.79 147.90 119.05 147.64 119.19 C 147.38 119.32 146.51 119.61 145.70 119.84 C 144.89 120.06 143.81 120.41 143.29 120.61 C 142.76 120.82 141.64 121.10 140.66 121.26 C 139.72 121.41 138.55 121.67 138.06 121.85 C 137.56 122.02 136.93 122.16 136.66 122.16 C 136.39 122.16 135.49 122.25 134.68 122.36 C 131.63 122.76 126.94 122.96 123.91 122.81 C 119.37 122.58 115.67 122.24 114.67 121.96 C 113.94 121.76 111.81 121.27 110.09 120.91 C 109.52 120.79 108.73 120.56 108.33 120.39 C 107.92 120.23 107.17 120.00 106.64 119.88 C 106.11 119.76 105.44 119.53 105.13 119.35 C 104.83 119.18 104.09 118.90 103.48 118.72 C 102.87 118.54 102.13 118.24 101.83 118.06 C 101.54 117.87 100.97 117.61 100.57 117.47 C 100.17 117.33 99.64 117.09 99.39 116.92 C 99.14 116.76 98.52 116.47 98.01 116.27 C 97.51 116.08 96.89 115.78 96.65 115.59 C 96.41 115.41 95.90 115.12 95.53 114.95 C 95.15 114.79 94.52 114.41 94.11 114.12 C 93.71 113.83 93.32 113.60 93.26 113.60 C 93.09 113.60 89.92 111.46 88.69 110.52 C 88.34 110.25 87.87 109.92 87.65 109.78 C 87.23 109.53 85.53 108.04 83.69 106.32 C 83.08 105.75 82.37 105.15 82.11 104.97 C 81.85 104.80 81.61 104.57 81.57 104.46 C 81.53 104.35 81.24 104.10 80.93 103.91 C 80.63 103.71 80.18 103.38 79.94 103.18 C 79.30 102.64 76.89 101.53 75.84 101.30 C 75.22 101.17 74.23 101.10 72.78 101.10 C 70.28 101.10 69.12 101.30 67.85 101.96 C 67.39 102.20 66.80 102.47 66.55 102.55 C 65.62 102.85 64.00 104.34 56.72 111.55 C 56.23 112.04 48.22 120.06 48.03 120.25 C 47.90 120.38 47.50 120.79 47.14 121.16 C 46.15 122.17 45.40 123.06 45.40 123.25 C 45.40 123.58 46.16 124.44 48.52 126.78 C 49.84 128.09 50.96 129.20 51.02 129.26 C 53.12 131.45 56.26 134.44 59.09 136.95 C 59.59 137.39 60.15 137.89 60.33 138.05 C 61.58 139.18 63.52 140.70 64.52 141.33 C 64.88 141.57 65.39 141.95 65.64 142.20 C 65.89 142.44 66.31 142.74 66.56 142.86 C 66.81 142.99 67.22 143.27 67.47 143.49 C 67.73 143.72 68.36 144.19 68.88 144.55 C 69.40 144.90 70.00 145.35 70.23 145.54 C 70.46 145.72 71.02 146.07 71.49 146.30 C 71.95 146.53 72.51 146.87 72.72 147.05 C 72.93 147.23 73.42 147.52 73.81 147.69 C 74.19 147.86 74.69 148.14 74.92 148.31 C 75.43 148.71 76.60 149.37 79.61 150.98 C 79.96 151.17 80.55 151.42 80.93 151.55 C 81.30 151.67 81.64 151.82 81.68 151.89 C 81.78 152.06 82.85 152.58 83.49 152.79 C 83.78 152.88 84.33 153.14 84.72 153.37 C 85.12 153.60 85.82 153.93 86.28 154.09 C 86.74 154.25 87.33 154.52 87.58 154.68 C 87.83 154.84 88.51 155.09 89.09 155.24 C 89.68 155.38 90.44 155.64 90.78 155.82 C 91.13 155.99 91.90 156.26 92.51 156.42 C 93.12 156.59 93.95 156.88 94.35 157.09 C 94.76 157.29 95.66 157.60 96.36 157.77 C 97.06 157.94 97.97 158.20 98.37 158.35 C 98.78 158.50 99.86 158.77 100.77 158.95 C 101.69 159.13 102.97 159.46 103.62 159.67 C 104.26 159.89 105.43 160.15 106.21 160.25 C 106.99 160.35 108.36 160.59 109.25 160.77 C 111.27 161.18 114.30 161.55 117.43 161.75 C 118.75 161.83 120.73 161.98 121.84 162.06 C 124.68 162.29 127.89 162.29 130.53 162.06 Z M 37.83 114.87 C 38.03 114.72 48.97 103.83 62.14 90.68 C 75.31 77.53 86.29 66.61 86.54 66.41 C 86.79 66.22 87.40 65.66 87.90 65.19 C 88.72 64.41 89.75 63.57 91.54 62.21 C 92.62 61.39 93.99 60.40 94.38 60.16 C 94.58 60.04 95.02 59.75 95.35 59.52 C 95.68 59.29 96.30 58.92 96.73 58.69 C 97.16 58.46 97.68 58.13 97.89 57.96 C 98.10 57.78 98.42 57.58 98.60 57.51 C 98.78 57.45 99.31 57.16 99.78 56.88 C 100.24 56.60 100.88 56.29 101.20 56.17 C 101.52 56.06 102.05 55.80 102.38 55.58 C 102.71 55.37 103.30 55.09 103.68 54.96 C 104.07 54.82 104.70 54.56 105.08 54.36 C 105.46 54.17 106.25 53.85 106.83 53.65 C 107.41 53.45 108.30 53.13 108.80 52.95 C 110.70 52.26 113.54 51.43 114.88 51.17 C 115.64 51.03 116.64 50.79 117.10 50.65 C 119.39 49.94 127.87 49.35 132.10 49.61 C 137.94 49.97 140.05 50.20 141.69 50.66 C 142.44 50.87 143.61 51.13 144.29 51.25 C 144.96 51.36 146.19 51.68 147.01 51.96 C 147.83 52.23 148.89 52.54 149.35 52.65 C 149.81 52.76 150.46 52.99 150.78 53.17 C 151.10 53.34 151.80 53.62 152.33 53.77 C 152.87 53.93 153.54 54.19 153.83 54.36 C 154.11 54.53 154.67 54.79 155.06 54.94 C 155.45 55.09 156.04 55.38 156.36 55.58 C 156.68 55.78 157.34 56.08 157.83 56.24 C 158.32 56.40 158.90 56.68 159.13 56.88 C 159.35 57.07 159.74 57.31 159.99 57.40 C 160.24 57.50 160.74 57.78 161.09 58.03 C 161.44 58.28 161.97 58.59 162.26 58.73 C 162.55 58.86 163.02 59.16 163.32 59.39 C 163.61 59.62 164.20 60.02 164.62 60.29 C 166.21 61.31 168.46 63.03 169.68 64.16 C 170.21 64.66 170.71 65.06 170.78 65.06 C 170.86 65.06 171.20 65.34 171.54 65.68 C 171.89 66.02 172.50 66.59 172.90 66.94 C 173.31 67.30 173.89 67.83 174.20 68.11 C 175.09 68.94 175.83 69.45 176.73 69.87 C 177.20 70.09 177.84 70.40 178.16 70.57 C 179.12 71.08 180.51 71.29 182.87 71.29 C 184.03 71.29 185.34 71.23 185.76 71.15 C 186.72 70.98 188.86 70.00 189.97 69.23 C 191.36 68.26 194.15 65.58 202.04 57.62 C 203.50 56.15 205.40 54.24 206.26 53.38 C 209.01 50.62 209.63 49.95 209.80 49.54 C 209.95 49.18 209.93 49.06 209.63 48.42 C 209.39 47.92 209.12 47.58 208.78 47.36 C 208.50 47.17 208.27 46.96 208.27 46.90 C 208.27 46.80 204.55 43.05 202.10 40.67 C 201.59 40.16 201.03 39.64 199.90 38.60 C 199.18 37.94 198.34 37.16 198.01 36.85 C 197.43 36.28 195.33 34.41 193.91 33.19 C 193.49 32.83 192.91 32.38 192.63 32.20 C 192.34 32.02 191.99 31.74 191.85 31.58 C 191.71 31.42 191.36 31.17 191.07 31.03 C 190.79 30.89 190.33 30.57 190.06 30.33 C 189.79 30.08 189.28 29.71 188.93 29.49 C 188.57 29.27 188.28 29.05 188.28 28.99 C 188.28 28.94 188.00 28.74 187.66 28.56 C 187.32 28.37 186.90 28.07 186.72 27.88 C 186.55 27.69 186.12 27.39 185.78 27.21 C 185.44 27.04 184.89 26.70 184.57 26.45 C 184.24 26.20 183.91 26.00 183.82 26.00 C 183.73 26.00 183.31 25.75 182.89 25.44 C 182.46 25.13 181.91 24.80 181.66 24.70 C 181.41 24.61 181.03 24.40 180.82 24.25 C 179.78 23.49 177.47 22.17 175.69 21.31 C 172.85 19.94 172.22 19.65 171.93 19.57 C 171.75 19.53 171.23 19.27 170.76 19.00 C 170.30 18.73 169.63 18.43 169.27 18.34 C 168.91 18.24 168.40 18.00 168.13 17.81 C 167.85 17.61 167.24 17.36 166.72 17.24 C 166.22 17.13 165.48 16.87 165.07 16.67 C 164.67 16.46 163.90 16.19 163.37 16.07 C 162.83 15.94 161.97 15.64 161.46 15.40 C 160.94 15.16 160.01 14.85 159.39 14.71 C 158.77 14.56 158.00 14.33 157.68 14.19 C 157.36 14.04 156.25 13.75 155.20 13.54 C 154.16 13.32 152.78 12.97 152.14 12.77 C 151.50 12.56 150.48 12.33 149.87 12.25 C 149.26 12.17 148.36 12.02 147.86 11.92 C 144.04 11.15 142.23 10.93 137.41 10.63 C 135.66 10.52 133.68 10.37 133.00 10.30 C 129.95 10.00 129.14 10.00 124.59 10.35 C 116.43 10.98 115.77 11.05 112.11 11.70 C 110.93 11.92 109.40 12.18 108.71 12.29 C 108.02 12.40 106.91 12.67 106.23 12.89 C 105.55 13.11 104.39 13.39 103.65 13.53 C 102.91 13.66 101.93 13.93 101.46 14.13 C 101.00 14.32 100.07 14.59 99.39 14.73 C 98.72 14.86 97.96 15.10 97.71 15.25 C 97.45 15.40 96.55 15.75 95.69 16.02 C 92.53 17.02 91.07 17.56 90.27 18.00 C 89.83 18.25 89.24 18.49 88.96 18.54 C 88.69 18.59 88.18 18.83 87.83 19.06 C 87.48 19.30 86.88 19.58 86.50 19.69 C 86.12 19.80 85.58 20.07 85.31 20.29 C 85.04 20.50 84.40 20.80 83.89 20.95 C 83.39 21.10 82.68 21.41 82.32 21.65 C 81.97 21.89 81.41 22.20 81.09 22.34 C 80.77 22.48 80.10 22.87 79.60 23.20 C 79.11 23.52 78.63 23.79 78.55 23.79 C 78.46 23.79 78.15 23.99 77.85 24.24 C 77.56 24.49 77.19 24.73 77.03 24.78 C 76.87 24.83 76.35 25.12 75.87 25.44 C 75.39 25.75 74.86 26.05 74.70 26.12 C 74.53 26.18 74.22 26.38 74.01 26.55 C 73.80 26.73 73.48 26.95 73.29 27.05 C 73.10 27.15 72.58 27.51 72.12 27.85 C 71.66 28.20 71.01 28.66 70.67 28.89 C 68.04 30.67 64.77 33.25 62.64 35.21 C 62.06 35.75 61.07 36.65 58.96 38.55 C 58.11 39.32 46.82 50.53 33.89 63.45 C 17.19 80.13 10.31 87.09 10.17 87.44 C 10.05 87.70 10.00 88.04 10.04 88.18 C 10.12 88.41 34.63 113.03 36.29 114.53 C 37.05 115.23 37.28 115.28 37.83 114.87 Z"/></svg>