<svg xmlns="http://www.w3.org/2000/svg" viewBox="0 0 256 172.29">
  <rect width="256" height="172.29" rx="40" fill="#0a0b12"/>
  <path fill="#f4f5fa" fill-rule="evenodd" d="M130.53 162.06c35.09-2.36 65.18-27.38 65.18-27.38C246 84.7 246 84.64 245.03 83.6c-1.03-1.1-26.32-26.41-27.2-26.08-.83.28-49.17 48.91-50.91 50.39C152 120 134.68 122.36 134.68 122.36 110 124 88.69 110.52 88.69 110.52 82 105 81.57 104.46 81.57 104.46 78 101 72.78 101.1 72.78 101.1c-4.78.4-27.38 22.15-27.38 22.15 0 .33 21.6 20.75 22.07 20.24C90 162 130.53 162.06 130.53 162.06ZM37.83 114.87C38 115 86.54 66.41 86.54 66.41 102 51 132.1 49.61 132.1 49.61c32.9 1.89 37.58 14.55 37.58 14.55C182 75 185.76 71.15 185.76 71.15 192 69 209.8 49.54 209.8 49.54c.2-.54-1.53-2.64-1.53-2.64-4.27-3.9-40.14-29.09-40.14-29.09C130-2 86.5 16.02 86.5 16.02 50 33 10.17 87.44 10.17 87.44c-.17.56 27.66 27.43 27.66 27.43Z"/>
</svg>
